<?xml version="1.0" standalone="no"?>
<!DOCTYPE svg PUBLIC "-//W3C//DTD SVG 20010904//EN"
 "http://www.w3.org/TR/2001/REC-SVG-20010904/DTD/svg10.dtd">
<svg version="1.0" xmlns="http://www.w3.org/2000/svg"
 width="700.000000pt" height="700.000000pt" viewBox="0 0 700.000000 700.000000"
 preserveAspectRatio="xMidYMid meet">
<metadata>
Created by potrace 1.14, written by Peter Selinger 2001-2017
</metadata>
<g transform="translate(0.000000,700.000000) scale(0.100000,-0.100000)"
fill="#000000" stroke="none">
<path d="M493 6102 c-192 -2 -253 -5 -254 -15 -1 -16 -1 -5197 0 -5218 1 -14
72 -16 744 -15 l742 1 3 262 2 262 -362 0 c-200 1 -371 1 -380 1 -17 0 -18
107 -18 2100 l0 2100 379 0 379 0 1 260 c0 143 -3 260 -7 260 -384 3 -1041 4
-1229 2z"/>
<path d="M5388 6102 l-158 -3 0 -262 0 -262 367 1 c203 0 373 -1 379 -3 8 -3
11 -604 11 -2098 l0 -2093 -21 -4 c-12 -2 -182 -3 -378 -3 l-358 0 -1 -45 c0
-40 0 -247 1 -416 l0 -61 743 1 742 1 1 2623 2 2622 -502 0 c-275 1 -539 2
-586 3 -47 1 -156 1 -242 -1z"/>
<path d="M2517 5440 c-9 -4 -12 -71 -11 -270 1 -146 2 -274 3 -285 1 -20 8
-20 294 -20 l294 1 58 -166 c32 -91 71 -201 86 -245 24 -66 26 -82 15 -95 -7
-8 -57 -87 -111 -175 -54 -88 -108 -176 -120 -195 -12 -19 -75 -120 -140 -225
-64 -104 -131 -213 -149 -240 -17 -28 -36 -59 -43 -70 -22 -37 -295 -480 -328
-530 -17 -27 -80 -129 -140 -225 -59 -96 -115 -186 -124 -200 -9 -14 -20 -33
-26 -42 -5 -10 -44 -73 -86 -140 -42 -68 -113 -183 -157 -255 l-82 -132 342 2
341 2 71 112 c141 224 431 680 495 780 36 56 87 135 112 175 208 327 305 481
314 496 6 9 29 45 51 80 l41 63 13 -33 c7 -18 19 -46 26 -63 7 -16 63 -158
124 -315 62 -157 118 -298 125 -315 7 -16 70 -176 140 -355 69 -179 132 -338
139 -355 8 -16 37 -91 66 -165 29 -74 58 -148 65 -165 7 -16 19 -47 26 -68 7
-20 18 -37 24 -37 13 0 55 12 335 93 124 36 344 100 490 142 146 42 266 77
267 78 4 5 -160 552 -168 561 -4 5 -115 -26 -256 -72 -136 -45 -251 -78 -254
-74 -4 4 -39 90 -79 192 -40 102 -78 199 -85 215 -7 17 -61 154 -119 305 -59
151 -112 284 -117 295 -8 19 -253 640 -289 735 -9 25 -44 115 -78 200 -312
793 -391 992 -397 998 -7 7 -980 9 -998 2z"/>
</g>
</svg>
