<?xml version="1.0" standalone="no"?>
<!DOCTYPE svg PUBLIC "-//W3C//DTD SVG 20010904//EN"
 "http://www.w3.org/TR/2001/REC-SVG-20010904/DTD/svg10.dtd">
<svg version="1.0" xmlns="http://www.w3.org/2000/svg"
 width="700.000000pt" height="700.000000pt" viewBox="0 0 700.000000 700.000000"
 preserveAspectRatio="xMidYMid meet">
<metadata>
Created by potrace 1.14, written by Peter Selinger 2001-2017
</metadata>
<g transform="translate(0.000000,700.000000) scale(0.100000,-0.100000)"
fill="#000000" stroke="none">
<path d="M3447 6804 c-1 -1 -58 -5 -127 -9 -172 -9 -204 -12 -349 -36 -534
-88 -1030 -302 -1466 -633 -136 -103 -211 -169 -357 -318 -64 -66 -150 -160
-191 -211 -83 -102 -236 -314 -245 -337 -3 -8 -11 -22 -18 -30 -43 -51 -206
-380 -267 -540 -60 -156 -129 -389 -153 -515 -2 -11 -6 -31 -9 -45 -3 -14 -8
-42 -11 -64 -3 -21 -8 -48 -10 -60 -2 -11 -7 -46 -10 -76 -3 -30 -7 -66 -9
-80 -16 -99 -22 -437 -11 -575 4 -54 19 -209 21 -215 1 -3 5 -27 9 -55 12 -79
13 -86 31 -170 9 -44 25 -114 36 -155 12 -41 22 -82 24 -90 9 -43 72 -225 110
-318 83 -208 190 -411 308 -587 128 -190 207 -290 357 -448 41 -43 77 -82 80
-85 7 -10 103 -96 178 -162 244 -212 616 -436 922 -555 225 -87 468 -154 690
-189 196 -31 284 -38 487 -40 161 -2 390 11 501 29 50 7 202 34 227 39 398 83
816 262 1165 499 326 220 628 519 852 842 204 294 365 628 462 961 35 123 81
326 91 406 3 23 10 70 15 103 23 151 31 479 17 675 -7 82 -28 252 -42 330 -3
14 -7 39 -10 55 -42 230 -155 562 -275 809 -386 791 -1085 1401 -1925 1681
-128 43 -313 91 -423 111 -72 13 -144 24 -191 29 -30 4 -63 8 -73 10 -37 8
-405 24 -411 19z m443 -682 c69 -11 134 -22 145 -25 11 -2 38 -8 60 -12 22 -5
45 -9 50 -11 159 -43 242 -71 365 -121 357 -146 703 -388 949 -664 108 -121
120 -136 177 -214 240 -328 403 -703 473 -1090 18 -103 23 -139 37 -275 8 -77
8 -341 0 -425 -7 -66 -30 -235 -42 -300 -22 -123 -101 -380 -154 -500 -73
-168 -106 -232 -177 -350 -324 -533 -828 -940 -1413 -1138 -106 -36 -274 -81
-341 -91 -20 -3 -42 -7 -50 -10 -48 -16 -291 -38 -434 -39 -129 0 -342 10
-355 18 -3 2 -30 6 -60 10 -358 44 -806 219 -1113 436 -171 121 -223 165 -367
309 -162 162 -274 301 -386 482 -153 248 -297 606 -338 843 -3 17 -10 55 -16
85 -6 30 -13 75 -16 100 -3 25 -8 56 -11 70 -3 14 -6 129 -8 255 -3 209 5 332
29 473 3 17 8 47 12 65 3 17 18 84 34 149 87 345 259 696 476 975 279 357 672
658 1069 818 50 20 99 40 110 45 123 54 451 129 640 146 33 3 61 7 63 9 2 2
108 2 235 0 174 -2 264 -8 357 -23z"/>
<path d="M2557 5438 c-16 -10 -17 -567 -2 -569 5 -1 138 -2 295 -3 l285 -1 23
-65 c13 -36 49 -137 79 -225 30 -87 58 -166 63 -174 5 -10 -17 -55 -73 -145
-44 -72 -108 -176 -142 -231 -34 -55 -178 -287 -320 -515 -141 -228 -267 -431
-279 -451 -11 -20 -111 -181 -221 -358 -283 -455 -293 -470 -326 -526 -17 -27
-50 -81 -75 -120 -24 -38 -51 -82 -59 -97 l-16 -28 340 0 339 0 43 67 c23 38
68 107 98 155 31 48 78 122 105 165 27 43 63 101 81 128 29 45 581 915 694
1093 25 40 51 80 56 88 8 12 28 -29 89 -183 43 -109 84 -211 91 -228 7 -16 56
-142 110 -280 53 -137 103 -263 110 -280 7 -16 30 -73 50 -125 20 -52 92 -234
160 -405 67 -170 125 -320 129 -332 4 -13 13 -23 19 -23 7 0 145 38 307 85
162 47 399 115 525 152 127 36 237 69 246 74 15 7 10 29 -38 191 -103 342
-115 378 -126 378 -7 0 -120 -36 -252 -80 -132 -44 -243 -76 -247 -72 -3 4
-84 203 -178 442 -94 239 -206 525 -250 635 -43 110 -120 306 -170 435 -50
129 -96 244 -101 255 -4 11 -18 45 -29 75 -12 30 -26 66 -32 80 -5 14 -99 250
-207 525 l-196 499 -493 1 c-272 0 -499 -3 -505 -7z"/>
</g>
</svg>
